<?xml version="1.0" standalone="no"?>
<!DOCTYPE svg PUBLIC "-//W3C//DTD SVG 20010904//EN"
 "http://www.w3.org/TR/2001/REC-SVG-20010904/DTD/svg10.dtd">
<svg version="1.0" xmlns="http://www.w3.org/2000/svg"
 width="630.000000pt" height="630.000000pt" viewBox="0 0 630.000000 630.000000"
 preserveAspectRatio="xMidYMid meet">
<metadata>
Created by potrace 1.11, written by Peter Selinger 2001-2013
</metadata>
<g transform="translate(0.000000,630.000000) scale(0.100000,-0.100000)"
fill="#000000" stroke="none">
<path d="M0 3150 l0 -3150 3150 0 3150 0 0 3150 0 3150 -3150 0 -3150 0 0
-3150z m2575 2140 c9 -96 20 -184 24 -194 5 -13 24 -24 57 -32 27 -7 154 -40
281 -75 128 -34 235 -60 238 -57 3 3 14 130 25 283 11 153 21 280 23 282 2 2
7 -32 10 -74 4 -43 16 -181 27 -308 11 -126 20 -234 20 -240 0 -5 -30 -27 -66
-49 -35 -21 -69 -46 -73 -55 -11 -21 -25 -151 -17 -151 4 0 26 9 48 20 23 11
43 18 45 16 6 -5 -34 -83 -46 -90 -5 -4 -14 -21 -20 -39 -5 -17 -35 -111 -65
-208 l-56 -176 -117 24 c-65 13 -118 25 -119 26 -1 1 -38 117 -84 257 -45 140
-93 277 -107 303 -13 27 -22 51 -19 54 3 3 19 -9 37 -25 18 -17 36 -29 39 -27
4 2 8 34 9 71 l2 67 -82 83 -82 82 7 189 c3 103 9 240 13 303 l7 115 12 -100
c6 -55 19 -179 29 -275z m600 -177 c-10 -119 -16 -153 -26 -153 -13 0 -350
101 -367 110 -13 6 333 107 376 109 22 1 22 -1 17 -66z m270 21 c230 -70 232
-71 215 -77 -23 -10 -311 -89 -341 -94 -26 -5 -27 -4 -33 74 -4 43 -10 93 -13
111 -4 23 -1 32 8 32 8 0 82 -21 164 -46z m274 -115 l37 -11 38 -346 c50 -467
53 -507 34 -500 -8 3 -111 25 -229 47 -118 23 -227 44 -242 47 -16 3 -30 11
-32 17 -3 7 -16 113 -30 237 -14 124 -28 248 -31 276 -6 47 -4 53 15 59 16 5
21 14 21 43 l0 37 178 52 c201 58 192 57 241 42z m-1469 -299 c145 -39 266
-72 268 -74 2 -2 -13 -35 -32 -74 -19 -38 -66 -139 -105 -223 -112 -249 -132
-291 -136 -288 -1 2 -13 111 -26 242 -13 130 -26 237 -30 237 -5 0 -11 -63
-44 -499 -7 -100 -16 -186 -19 -189 -6 -6 -496 136 -509 148 -4 3 20 65 54
136 34 71 84 176 111 234 27 58 70 150 95 205 48 105 102 215 106 215 1 0 121
-32 267 -70z m348 -99 c14 -8 44 -141 33 -141 -5 0 -101 48 -109 55 -2 1 7 23
20 49 22 46 32 53 56 37z m-1063 -365 c19 -159 36 -291 38 -292 1 -1 92 -25
202 -54 383 -98 366 -95 374 -81 4 6 13 101 20 209 16 255 23 353 27 349 4 -4
54 -560 54 -602 0 -31 -5 -37 -64 -70 -35 -20 -69 -41 -74 -48 -5 -7 -13 -45
-17 -85 l-7 -73 28 7 c16 4 40 11 53 16 30 11 38 3 19 -19 -35 -41 -69 -119
-128 -293 -34 -102 -63 -186 -64 -186 0 -1 -53 8 -116 20 l-115 21 -102 305
c-56 168 -102 309 -102 314 -1 6 14 -4 32 -22 18 -18 36 -32 40 -32 4 0 7 35
7 78 l0 77 -84 73 c-85 72 -85 73 -81 115 3 23 7 164 11 312 4 149 8 266 10
260 2 -5 19 -140 39 -299z m1145 211 c0 -5 -4 -5 -10 -2 -5 3 -10 14 -10 23 0
15 2 15 10 2 5 -8 10 -19 10 -23z m25 -69 c1 -1 18 -52 38 -113 l35 -110 96
-21 c52 -12 111 -25 130 -28 l33 -6 32 88 c30 83 34 89 57 84 13 -2 27 -8 30
-13 3 -5 7 -53 10 -107 2 -53 7 -138 10 -189 l6 -92 66 -22 c37 -12 73 -24 80
-27 9 -3 12 40 12 197 0 154 3 201 13 201 19 0 490 -110 507 -119 12 -6 16
-34 18 -130 l3 -122 -50 -87 c-27 -48 -112 -196 -188 -329 l-138 -241 -149
-159 c-242 -257 -329 -344 -340 -340 -10 3 -74 606 -76 705 0 29 -4 42 -14 42
-16 0 -19 -53 -37 -510 l-10 -275 80 -75 81 -75 0 -59 0 -59 -57 56 c-32 31
-59 55 -60 53 -2 -2 17 -45 41 -97 24 -52 81 -211 125 -353 45 -143 84 -262
87 -265 3 -3 64 -18 135 -32 l129 -26 9 31 c5 17 34 108 64 202 45 140 65 186
110 255 30 46 54 85 52 87 -1 2 -27 -6 -56 -18 -78 -29 -86 -27 -82 18 8 76
11 81 76 113 34 17 67 35 72 39 6 5 8 43 4 97 -4 60 -2 91 6 98 7 6 98 93 204
194 184 178 194 189 253 295 34 61 70 127 81 146 11 19 33 60 50 90 16 30 33
60 37 65 4 6 21 35 38 65 141 255 210 374 219 377 12 4 23 -360 23 -749 l0
-269 96 -99 c78 -80 97 -106 99 -132 9 -112 32 -2049 25 -2053 -7 -4 -241 51
-935 220 -319 78 -742 182 -1090 267 -137 33 -255 65 -261 70 -8 6 -12 56 -13
146 -1 75 -6 315 -11 532 -5 217 -15 626 -21 908 l-12 513 86 87 87 87 -4 60
c-3 33 -8 257 -12 497 l-6 436 37 -8 c20 -4 38 -10 40 -12z m1587 -393 c138
-41 253 -77 256 -79 2 -3 -56 -110 -129 -238 -73 -128 -149 -262 -169 -298
-20 -36 -56 -97 -78 -137 -23 -39 -50 -87 -61 -106 -37 -65 -46 -77 -61 -77
-8 0 -103 27 -210 59 l-195 59 -7 41 c-11 63 -22 72 -28 21 -5 -41 -7 -45 -30
-42 -43 6 -44 18 -8 79 19 32 129 223 244 426 115 202 212 367 216 367 4 0
121 -34 260 -75z m-1332 -1010 c22 -240 26 -285 32 -290 2 -2 46 -15 98 -28
52 -14 129 -34 170 -45 172 -47 314 -81 319 -77 2 3 11 127 20 276 8 150 18
263 22 253 4 -11 17 -131 29 -269 11 -137 23 -266 26 -285 5 -35 4 -35 -70
-75 -82 -44 -76 -32 -91 -162 l-7 -53 56 20 c31 10 56 16 56 13 0 -3 -15 -26
-34 -52 -24 -32 -52 -103 -97 -241 -35 -107 -67 -198 -72 -201 -4 -3 -56 4
-116 15 l-109 21 -35 110 c-114 359 -136 424 -156 463 -25 49 -16 54 24 12 16
-16 32 -30 37 -30 4 0 8 35 8 77 l0 77 -86 84 c-74 72 -85 87 -80 110 3 15 8
137 12 272 3 135 9 250 12 255 8 13 8 17 32 -250z m613 179 l28 -6 -6 -77
c-15 -202 -35 -477 -35 -488 0 -7 -7 -13 -16 -13 -18 0 -464 110 -477 117 -9
5 1 16 277 306 116 122 174 176 185 173 9 -3 29 -8 44 -12z m268 -74 c101 -28
188 -51 194 -53 5 -2 -70 -84 -167 -183 -97 -98 -179 -177 -181 -174 -3 3 -12
95 -21 205 -9 110 -19 212 -21 228 -2 15 -1 27 4 27 4 0 91 -23 192 -50z"/>
</g>
</svg>
