<svg width="43" height="42" viewBox="0 0 43 42" fill="none" xmlns="http://www.w3.org/2000/svg">
<g clip-path="url(#clip0)">
<path d="M24.4661 21.1035H22.4765V23.1984H24.4662C25.0438 23.1985 25.5136 22.7286 25.5136 22.151C25.5136 21.5734 25.0437 21.1035 24.4661 21.1035Z" fill="#ED2124"/>
<path d="M14.3342 21.1035C13.4969 21.1035 12.8156 21.7847 12.8156 22.6221V23.1984H15.8527V22.6221C15.8527 21.7846 15.1715 21.1035 14.3342 21.1035Z" fill="#ED2124"/>
<path d="M0.246033 14.5986V32.2744C0.246033 34.3098 1.902 35.9658 3.93744 35.9658H38.5546C40.5901 35.9658 42.246 34.3098 42.246 32.2744V14.5986H0.246033ZM18.3137 27.9923C18.3137 28.6718 17.7627 29.2228 17.0832 29.2228C16.4036 29.2228 15.8527 28.6718 15.8527 27.9923V25.6597H12.8157V27.9923C12.8157 28.6718 12.2648 29.2228 11.5852 29.2228C10.9057 29.2228 10.3547 28.6718 10.3547 27.9923V22.6224H10.3547C10.3547 20.4281 12.1399 18.6429 14.3342 18.6429C16.5284 18.6429 18.3137 20.4281 18.3137 22.6224V27.9923ZM24.4662 25.6596H22.4765V27.9922C22.4765 28.6717 21.9256 29.2227 21.246 29.2227C20.5665 29.2227 20.0156 28.6717 20.0156 27.9922V19.8732C20.0156 19.1937 20.5665 18.6428 21.246 18.6428H24.4662C26.4007 18.6428 27.9746 20.2166 27.9746 22.1512C27.9746 24.0857 26.4007 25.6596 24.4662 25.6596ZM32.1374 27.9921C32.1374 28.6717 31.5865 29.2226 30.9069 29.2226C30.2274 29.2226 29.6765 28.6717 29.6765 27.9921V19.8732C29.6765 19.1937 30.2274 18.6428 30.9069 18.6428C31.5865 18.6428 32.1374 19.1937 32.1374 19.8732V27.9921Z" fill="#ED2124"/>
<path d="M38.5546 6.03418H3.93744C1.902 6.03418 0.246033 7.69014 0.246033 9.72559V12.1377H42.246V9.72559C42.246 7.69014 40.5901 6.03418 38.5546 6.03418Z" fill="#ED2124"/>
</g>
<defs>
<clipPath id="clip0">
<rect x="0.246033" width="42" height="42" fill="white"/>
</clipPath>
</defs>
</svg>
