<svg width="225" height="225" viewBox="0 0 225 225" fill="none" xmlns="http://www.w3.org/2000/svg">
<path d="M204.911 180.768V20.0894L198.78 20.6034C174.192 22.6358 150.075 28.5135 127.31 38.0245L116.518 42.5054V202.549L124.377 199.282C147.935 189.481 172.878 183.417 198.305 181.306L204.911 180.768Z" fill="#ED2124"/>
<path d="M225 43.8433H212.946V184.468C212.954 186.564 211.348 188.313 209.258 188.486L198.968 189.33C195.998 189.575 193.036 189.879 190.085 190.242C189.128 190.358 188.176 190.511 187.225 190.644C185.235 190.909 183.25 191.178 181.27 191.492C180.117 191.676 178.971 191.892 177.822 192.094C176.05 192.404 174.275 192.712 172.507 193.061C171.3 193.302 170.096 193.573 168.866 193.834C167.182 194.191 165.499 194.556 163.828 194.954C162.574 195.253 161.324 195.568 160.079 195.886C158.452 196.288 156.834 196.722 155.217 197.173C153.96 197.518 152.702 197.883 151.449 198.252C149.842 198.727 148.259 199.21 146.671 199.716C145.43 200.118 144.186 200.52 142.948 200.92C141.359 201.456 139.777 202.009 138.202 202.58C136.998 203.018 135.791 203.457 134.559 203.918C134.008 204.128 133.46 204.352 132.911 204.565H225V43.8433Z" fill="#ED2124"/>
<path d="M26.2201 20.6034L20.0893 20.0894V180.78L27.2206 181.386C52.6324 183.511 77.5537 189.612 101.072 199.467L108.482 202.549V42.5054L97.7018 38.0285C74.9346 28.5155 50.8137 22.6358 26.2201 20.6034Z" fill="#ED2124"/>
<path d="M0 43.8433V204.558H92.1537C91.6593 204.363 91.165 204.155 90.6666 203.971C89.517 203.533 88.3576 203.116 87.2001 202.694C85.5678 202.101 83.9375 201.525 82.2935 200.973C81.1046 200.571 79.9118 200.181 78.717 199.8C77.0868 199.264 75.4506 198.76 73.8124 198.289C72.6059 197.936 71.4013 197.581 70.1968 197.244C68.5449 196.787 66.8891 196.353 65.2294 195.927C64.0248 195.617 62.8183 195.307 61.5862 195.019C59.903 194.617 58.2099 194.248 56.5188 193.885C55.3142 193.624 54.1077 193.359 52.9031 193.118C51.1512 192.773 49.3914 192.463 47.6316 192.155C46.4781 191.953 45.3245 191.753 44.169 191.547C42.2267 191.239 40.2786 190.978 38.3305 190.715C37.3457 190.583 36.3687 190.426 35.3858 190.315C32.4391 189.958 29.4924 189.653 26.5457 189.402L15.7301 188.486C13.6446 188.308 12.0457 186.56 12.0536 184.468V43.8433H0Z" fill="#ED2124"/>
</svg>
