<svg width="43" height="41" viewBox="0 0 43 41" fill="none" xmlns="http://www.w3.org/2000/svg">
<g clip-path="url(#clip0)">
<path d="M5.19034 29.2354L4.03582 30.845C3.95988 30.9508 3.90252 31.0678 3.86471 31.192L2.75536 34.833C2.60412 35.3282 2.79445 35.8625 3.22864 36.159C3.66283 36.4558 4.24186 36.448 4.66707 36.1399L7.77817 33.8871C6.26797 32.8436 5.27141 31.156 5.19034 29.2354Z" fill="#ED2124"/>
<path d="M41.0156 18.1787H37.3238V36.196C37.3238 37.089 38.2864 37.6699 39.1048 37.2705L41.7484 35.3564C42.0615 35.1299 42.246 34.7718 42.246 34.3917V19.3799C42.246 18.7164 41.6952 18.1787 41.0156 18.1787Z" fill="#ED2124"/>
<path d="M24.807 3.98137C24.2498 3.60038 23.4833 3.73238 23.093 4.27635L20.9756 7.22829L25.0076 9.98442L27.1251 7.03247C27.5154 6.48851 27.3801 5.74028 26.8229 5.35928L24.807 3.98137Z" fill="#ED2124"/>
<path d="M9.44956 23.2971C10.0424 23.1109 10.6624 22.9833 11.3177 22.9833H15.6833L23.5961 11.9519L19.5641 9.1958L9.44956 23.2971Z" fill="#ED2124"/>
<path d="M9.0599 13.1791C8.37962 13.4675 7.81117 13.9414 7.41351 14.5527L0.632152 24.976C-0.21764 26.636 0.385418 28.6242 1.95074 29.6058C1.97926 29.562 1.98855 29.5104 2.01899 29.4678L15.2475 11.0248C14.7537 10.9958 14.249 11.0264 13.7405 11.1941L9.0599 13.1791Z" fill="#ED2124"/>
<path d="M10.0872 34.875V35.5973C10.0872 36.5923 10.9136 37.399 11.9332 37.399C12.9526 37.399 13.779 36.5923 13.779 35.5973V34.9967H11.3177C10.8966 34.9967 10.4852 34.9541 10.0872 34.875Z" fill="#ED2124"/>
<path d="M16.2402 34.9969V35.5975C16.2402 36.5925 17.0666 37.3992 18.0859 37.3992C18.9889 37.3992 19.7057 36.7539 19.8656 35.9175C19.4647 35.7554 19.0575 35.6091 18.6688 35.4214L17.8155 34.9966H16.2402V34.9969Z" fill="#ED2124"/>
<path d="M34.8626 18.1792H32.6042L24.7846 14.4834L18.7636 22.8782C20.2607 22.6511 21.6761 21.9854 22.7534 20.9334C23.234 20.4642 24.013 20.4642 24.4936 20.9334C24.9743 21.4027 24.9743 22.1631 24.4936 22.6323C22.7005 24.3824 20.2178 25.3869 17.6822 25.3869C16.3581 25.3869 10.9393 25.3869 11.318 25.3869C9.3467 25.3869 7.62629 26.9496 7.62629 28.9904C7.62629 30.9848 9.27524 32.5942 11.318 32.5942H18.406C18.9969 32.8197 22.2846 34.9969 27.3154 34.9969C29.8616 34.9969 32.568 34.416 34.8626 33.3387V18.1792Z" fill="#ED2124"/>
</g>
<defs>
<clipPath id="clip0">
<rect x="0.246033" width="42" height="41" fill="white"/>
</clipPath>
</defs>
</svg>
