<svg width="385" height="125" viewBox="0 0 385 125" fill="none" xmlns="http://www.w3.org/2000/svg">
<path d="M1.35083 0L20.2426 1.07451L18.9027 105.315L7.63799 104.674L1.35083 0Z" fill="#ED2124"/>
<path d="M43.2126 121.658L27.2004 122.41L31.1087 17.9216L42.0885 17.4061L43.2126 121.658Z" fill="#ED2124"/>
<path d="M67.8774 108.289L48.9851 107.223L50.3358 2.98277L61.6008 3.61841L67.8774 108.289Z" fill="#ED2124"/>
<path d="M92.5427 119.652L76.2103 120.419L80.2192 15.9266L91.4186 15.4008L92.5427 119.652Z" fill="#ED2124"/>
<path d="M99.5898 5.34753L117.842 6.3774L116.491 110.617L105.608 110.003L99.5898 5.34753Z" fill="#ED2124"/>
<path d="M140.592 117.647L124.579 118.399L128.488 13.9109L139.467 13.3953L140.592 117.647Z" fill="#ED2124"/>
<path d="M164.936 113.636L146.364 112.588L147.715 8.34844L158.789 8.9733L164.936 113.636Z" fill="#ED2124"/>
<path d="M189.281 114.973L173.269 115.725L177.177 11.2371L188.157 10.7215L189.281 114.973Z" fill="#ED2124"/>
<path d="M196.328 10.6953L215.22 11.7613L213.87 116.001L202.605 115.366L196.328 10.6953Z" fill="#ED2124"/>
<path d="M238.291 112.968L221.958 113.735L225.967 9.24207L237.167 8.7162L238.291 112.968Z" fill="#ED2124"/>
<path d="M262.956 118.984L244.064 117.918L245.414 13.678L256.679 14.3136L262.956 118.984Z" fill="#ED2124"/>
<path d="M287.301 110.294L271.288 111.046L275.197 6.55805L286.176 6.04249L287.301 110.294Z" fill="#ED2124"/>
<path d="M294.348 16.0427L312.92 17.0907L311.569 121.331L300.495 120.706L294.348 16.0427Z" fill="#ED2124"/>
<path d="M335.99 108.289L319.658 109.056L323.666 4.56299L334.866 4.03712L335.99 108.289Z" fill="#ED2124"/>
<path d="M360.655 125L341.762 123.934L343.113 19.694L354.378 20.3296L360.655 125Z" fill="#ED2124"/>
<path d="M385 105.615L368.988 106.367L372.896 1.87885L383.876 1.36329L385 105.615Z" fill="#ED2124"/>
</svg>
