<svg width="1202" height="187" viewBox="0 0 1202 187" fill="none" xmlns="http://www.w3.org/2000/svg">
<path d="M4.3136 0L63.292 1.59474L59.0754 157.538L23.9082 156.587L4.3136 0Z" fill="#ED2124"/>
<path d="M135 182L85.0126 183.125L97.2137 26.8108L131.491 26.0395L135 182Z" fill="#ED2124"/>
<path d="M212 162L153.022 160.405L157.238 4.46225L192.405 5.41316L212 162Z" fill="#ED2124"/>
<path d="M289 179L238.013 180.147L250.528 23.8262L285.491 23.0395L289 179Z" fill="#ED2124"/>
<path d="M311 8L367.979 9.54069L363.763 165.484L329.787 164.565L311 8Z" fill="#ED2124"/>
<path d="M439 176L389.013 177.125L401.214 20.8108L435.491 20.0395L439 176Z" fill="#ED2124"/>
<path d="M515 170L457.021 168.432L461.238 12.4893L495.809 13.4241L515 170Z" fill="#ED2124"/>
<path d="M591 172L541.013 173.125L553.214 16.8108L587.491 16.0395L591 172Z" fill="#ED2124"/>
<path d="M613 16L671.978 17.5947L667.762 173.538L632.595 172.587L613 16Z" fill="#ED2124"/>
<path d="M744 169L693.013 170.147L705.528 13.8262L740.491 13.0395L744 169Z" fill="#ED2124"/>
<path d="M821 178L762.022 176.405L766.238 20.4622L801.405 21.4132L821 178Z" fill="#ED2124"/>
<path d="M897 165L847.013 166.125L859.214 9.81076L893.491 9.03948L897 165Z" fill="#ED2124"/>
<path d="M919 24L976.979 25.5677L972.762 181.511L938.191 180.576L919 24Z" fill="#ED2124"/>
<path d="M1049 162L998.013 163.147L1010.53 6.82618L1045.49 6.03948L1049 162Z" fill="#ED2124"/>
<path d="M1126 187L1067.02 185.405L1071.24 29.4622L1106.41 30.4132L1126 187Z" fill="#ED2124"/>
<path d="M1202 158L1152.01 159.125L1164.21 2.81076L1198.49 2.03948L1202 158Z" fill="#ED2124"/>
</svg>
