<svg width="125" height="125" viewBox="0 0 125 125" fill="none" xmlns="http://www.w3.org/2000/svg">
<g clip-path="url(#clip0)">
<path d="M111.607 8.92859H116.071V13.3929H111.607V8.92859Z" fill="black"/>
<path d="M75.8929 8.92859H80.3571V13.3929H75.8929V8.92859Z" fill="black"/>
<path d="M125 0H0V22.3214H125V0ZM84.8214 15.625C84.8214 16.8577 83.822 17.8571 82.5893 17.8571H73.6607C72.428 17.8571 71.4286 16.8577 71.4286 15.625V6.69643C71.4286 5.46374 72.428 4.46429 73.6607 4.46429H82.5893C83.822 4.46429 84.8214 5.46374 84.8214 6.69643V15.625ZM102.679 15.625C102.679 16.8577 101.679 17.8571 100.446 17.8571H91.5179C90.2852 17.8571 89.2857 16.8577 89.2857 15.625V6.69643C89.2857 5.46374 90.2852 4.46429 91.5179 4.46429H100.446C101.679 4.46429 102.679 5.46374 102.679 6.69643V15.625ZM120.536 15.625C120.536 16.8577 119.536 17.8571 118.304 17.8571H109.375C108.142 17.8571 107.143 16.8577 107.143 15.625V6.69643C107.143 5.46374 108.142 4.46429 109.375 4.46429H118.304C119.536 4.46429 120.536 5.46374 120.536 6.69643V15.625Z" fill="black"/>
<path d="M62.3812 89.2857C63.615 89.3511 64.6667 88.405 64.7321 87.1724C64.7975 85.9386 63.8515 84.8868 62.6188 84.8214H62.5C61.2673 84.7898 60.2417 85.7631 60.2101 86.9958C60.1774 88.2285 61.1507 89.2541 62.3845 89.2857H62.3812Z" fill="black"/>
<path d="M93.75 8.92859H98.2143V13.3929H93.75V8.92859Z" fill="black"/>
<path d="M0 125H125V26.7858H0V125ZM19.9552 100.764L18.801 96.4509L27.4266 94.1402L28.5808 98.453L19.9552 100.764ZM105.045 100.764L96.429 98.453L97.5843 94.1402L106.208 96.4509L105.045 100.764ZM107.143 89.2858H98.2143V84.8215H107.143V89.2858ZM106.199 77.6564L97.5756 79.967L96.429 75.6542L105.053 73.3436L106.199 77.6564ZM102.276 66.6657L94.5445 71.13L92.3124 67.263L100.044 62.7987L102.276 66.6657ZM95.6475 57.0668L89.3326 63.3818L86.174 60.2232L92.4911 53.9104L95.6475 57.0668ZM82.8879 47.2772L86.7549 49.5094L82.2906 57.2412L78.4236 55.0091L82.8879 47.2772ZM71.8994 43.3546L76.2122 44.5089L73.8972 53.1246L69.5866 51.9715L71.8994 43.3546ZM60.2679 42.4108H64.7321V51.3393H60.2679V42.4108ZM58.0357 82.0738C60.0477 80.2569 62.9589 79.8384 65.4014 81.0133L79.8819 66.536L83.0383 69.6924L68.5294 84.2013C69.5223 86.27 69.3806 88.7027 68.1556 90.6427C66.9305 92.5828 64.7943 93.7566 62.5 93.7501C62.379 93.7501 62.2591 93.7501 62.136 93.7501C59.4308 93.6018 57.081 91.8383 56.1829 89.2825C55.2859 86.7256 56.0172 83.8809 58.0357 82.0738ZM53.1028 43.3546L55.4134 51.9802L51.1006 53.1344L48.79 44.5089L53.1028 43.3546ZM42.1121 47.2772L46.5764 55.0091L42.7094 57.2412L38.2451 49.5094L42.1121 47.2772ZM32.5132 53.9083L38.8282 60.221L35.6696 63.3796L29.3568 57.0647L32.5132 53.9083ZM24.9557 62.7987L32.6876 67.263L30.4555 71.13L22.7236 66.6657L24.9557 62.7987ZM19.9552 73.3436L28.571 75.6542L27.4179 79.967L18.801 77.6564L19.9552 73.3436ZM17.8571 84.8215H26.7857V89.2858H17.8571V84.8215Z" fill="black"/>
</g>
<defs>
<clipPath id="clip0">
<rect width="125" height="125" fill="white"/>
</clipPath>
</defs>
</svg>
