<svg width="43" height="42" viewBox="0 0 43 42" fill="none" xmlns="http://www.w3.org/2000/svg">
<g clip-path="url(#clip0)">
<path d="M3.90577 5.74902C3.34453 5.74902 2.88935 6.20382 2.88935 6.76545C2.88935 7.32669 3.34453 7.78187 3.90577 7.78187C4.46702 7.78187 4.9222 7.32669 4.9222 6.76545C4.92143 6.20458 4.46702 5.74979 3.90577 5.74902Z" fill="#ED2124"/>
<path d="M4.83673 16.5464V25.4531L18.6943 20.9997L4.83673 16.5464Z" fill="#ED2124"/>
<path d="M0.246033 37.3145C0.246033 38.4995 1.24758 39.4606 2.43226 39.4606H40.0598C41.2445 39.4606 42.246 38.4995 42.246 37.3145V12.3071H0.246033V37.3145ZM3.27394 15.4327C3.27394 15.0012 3.62381 14.6513 4.05534 14.6513H38.4367C38.8683 14.6513 39.2181 15.0012 39.2181 15.4327V26.4699C39.2181 26.9014 38.8683 27.2513 38.4367 27.2513H4.05534C3.62381 27.2513 3.27394 26.9014 3.27394 26.4699V15.4327ZM3.59672 30.1816H21.446C21.8775 30.1816 22.2274 30.5314 22.2274 30.9629C22.2274 31.3945 21.8775 31.7443 21.446 31.7443H3.59672C3.1652 31.7443 2.81533 31.3945 2.81533 30.9629C2.81533 30.5314 3.1652 30.1816 3.59672 30.1816ZM3.59672 34.6746H21.446C21.8775 34.6746 22.2274 35.0245 22.2274 35.456C22.2274 35.8875 21.8775 36.2374 21.446 36.2374H3.59672C3.1652 36.2374 2.81533 35.8875 2.81533 35.456C2.81533 35.0245 3.1652 34.6746 3.59672 34.6746Z" fill="#ED2124"/>
<path d="M40.0598 2.53955H2.43226C1.24758 2.53955 0.246033 3.50065 0.246033 4.68572V10.7442H42.246V4.68572C42.246 3.50065 41.2445 2.53955 40.0598 2.53955ZM3.90577 9.34471C2.48148 9.34471 1.32656 8.19017 1.32656 6.7655C1.32656 5.3412 2.4811 4.18628 3.90577 4.18628C5.33006 4.18628 6.48499 5.34082 6.48499 6.7655C6.48346 8.18902 5.32968 9.3428 3.90577 9.34471ZM9.94747 9.34471C8.52318 9.34471 7.36825 8.19017 7.36825 6.7655C7.36825 5.3412 8.5228 4.18628 9.94709 4.18628C11.3718 4.18628 12.5263 5.34082 12.5267 6.7655C12.5248 8.18902 11.3714 9.3428 9.94747 9.34471ZM15.7938 9.34471C14.3691 9.34471 13.2146 8.19017 13.2142 6.7655C13.2142 5.3412 14.3691 4.18628 15.7934 4.18628C17.2177 4.18628 18.3727 5.34082 18.3727 6.7655C18.3711 8.18902 17.2177 9.34242 15.7942 9.34471H15.7938Z" fill="#ED2124"/>
<path d="M15.7938 5.74902C15.2322 5.74902 14.7774 6.20382 14.777 6.76545C14.777 7.32669 15.2322 7.78187 15.7934 7.78187C16.3547 7.78187 16.8099 7.32669 16.8099 6.76545C16.8095 6.20458 16.3547 5.74979 15.7938 5.74902Z" fill="#ED2124"/>
<path d="M9.03864 25.7863H33.4534L21.246 21.8633L9.03864 25.7863Z" fill="#ED2124"/>
<path d="M9.94747 5.74902C9.38623 5.74902 8.93105 6.20382 8.93105 6.76545C8.93105 7.32669 9.38584 7.78187 9.94709 7.78187C10.5087 7.78187 10.9635 7.32669 10.9639 6.76545C10.9631 6.20458 10.5083 5.74979 9.94747 5.74902Z" fill="#ED2124"/>
<path d="M33.4534 16.2139H9.03864L21.246 20.1369L33.4534 16.2139Z" fill="#ED2124"/>
<path d="M37.6553 25.4531V16.5464L23.7978 20.9997L37.6553 25.4531Z" fill="#ED2124"/>
</g>
<defs>
<clipPath id="clip0">
<rect x="0.246033" width="42" height="42" fill="white"/>
</clipPath>
</defs>
</svg>
