<svg width="1196" height="156" viewBox="0 0 1196 156" fill="none" xmlns="http://www.w3.org/2000/svg">
<path d="M0 0H59V156H23.8199L0 0Z" fill="#6C1669"/>
<path d="M131 156L81 156L96.7143 -3.33137e-06L131 0L131 156Z" fill="#E4A502"/>
<path d="M211 156L152 156L152 -5.73273e-06L187.18 -2.31446e-06L211 156Z" fill="#6C1669"/>
<path d="M283 156L232 156L248.029 -3.398e-06L283 0L283 156Z" fill="#E4A502"/>
<path d="M304 0H361V156H327.012L304 0Z" fill="#6C1669"/>
<path d="M433 156L383 156L398.714 -3.33137e-06L433 0L433 156Z" fill="#E4A502"/>
<path d="M513 156L455 156L455 -5.63557e-06L489.584 -2.27523e-06L513 156Z" fill="#6C1669"/>
<path d="M585 156L535 156L550.714 -3.33137e-06L585 0L585 156Z" fill="#E4A502"/>
<path d="M606 0H665V156H629.82L606 0Z" fill="#6C1669"/>
<path d="M738 156L687 156L703.029 -3.398e-06L738 0L738 156Z" fill="#E4A502"/>
<path d="M819 156L760 156L760 -5.73273e-06L795.18 -2.31446e-06L819 156Z" fill="#6C1669"/>
<path d="M891 156L841 156L856.714 -3.32581e-06L891 0L891 156Z" fill="#E4A502"/>
<path d="M912 0H970V156H935.416L912 0Z" fill="#6C1669"/>
<path d="M1043 156L992 156L1008.03 -3.398e-06L1043 0L1043 156Z" fill="#E4A502"/>
<path d="M1124 156L1065 156L1065 -5.73273e-06L1100.18 -2.31446e-06L1124 156Z" fill="#6C1669"/>
<path d="M1196 156L1146 156L1161.71 -3.32026e-06L1196 0L1196 156Z" fill="#E4A502"/>
</svg>
